<svg id="facebook" xmlns="http://www.w3.org/2000/svg" viewBox="0 0 50.35 103.32"><defs><style>.cls-1{fill:#3c599a;}</style></defs><title>facebook</title><path class="cls-1" d="M408.31,274.26c2.57,0,2.57.2,5.14.2,2.23,0,4.44-2.56,4.44-5,0-4-.43-4-.43-8.08,0-2.47-1.78-4.94-4-4.94-4.52,0-4.52-.4-9-.4-2,0-2,.1-4,.1-8.05,0-14.45,8-14.45,17,0,5.44,1,5.44,1,10.87,0,2.47-2.88,4.22-5.1,4.22-.87,0-.87.43-1.75.43-2.22,0-5.13,1.82-5.13,4.29,0,4.15.59,4.15.59,8.3,0,2.47,2.32,5.75,4.54,5.75h1.75c2.22,0,2.84.74,2.84,3.21,0,10.07,2,10.07,2,20.14s-1.8,10.08-1.8,20.15c0,2.47,2.81,4.52,5,4.52,5.26,0,5.26.58,10.53.58,2.22,0,3.21-2.63,3.21-5.1,0-10.07.24-10.07.24-20.15s.32-10.07.32-20.14a4.17,4.17,0,0,1,4.28-4.13c2.13,0,2.13-.09,4.26-.09A4.69,4.69,0,0,0,417,301.5c.24-4.15.4-4.14.64-8.29a4.74,4.74,0,0,0-4.43-4.9h-4.74c-2.23,0-3.7-1.89-3.7-4.36,0-2.86-.28-2.86-.28-5.72A3.78,3.78,0,0,1,408.31,274.26Z" transform="translate(-371.78 -254.67)"/><path d="M409.79,275.17c4.29,0,10.11.86,11.65-4.44.92-3.16,1.09-10-.61-12.87-2.53-4.35-9.3-3-13.45-3-4.85,0-9.76-.39-14.26,1.78a18.32,18.32,0,0,0-10.23,16.26c-.17,4.7,2.14,12.68-4,14-2.55.56-4.72.37-6.22,3-1.15,2-.82,4.58-.82,6.79,0,5.42,0,9.35,6.05,10.76,2,.46,3.95.55,5,3,.09.21-.05.55,0,.76.36,1.57,0,3.67,0,5.28v32.6c0,3.45.46,7,4.44,8.17s9.49.56,13.41.22c4.17-.37,6-3.22,6.15-7.13.34-10.49,0-21,0-31.54,0-4.31-1.52-10.39,4.19-11.4,2.74-.49,5.15.59,7.54-1.44,2-1.65,2.13-3.85,2.3-6.22.38-5.24,1.57-12.19-5.61-12.88-3.15-.3-7.23,1.39-8.42-3.25-.8-3.13-.34-8.08,3.3-8.57,1.66-.23,1.28-3.18-.4-2.95-8.56,1.15-8.43,17,.33,17.77,3,.26,7.16-1.3,8.22,3.34.4,1.74-.28,4.33-.39,6.1-.49,7.5-6.84,3.41-11.06,5.92-2.86,1.7-3,4.64-3,7.56v29c0,2.91.56,6.46,0,9.33-1,4.9-8.88,3.33-12.7,3.33-2.54,0-4.55.25-5.3-3.17a17.22,17.22,0,0,1,0-3.29V318.48c0-2.6.25-5.33,0-7.92a6.46,6.46,0,0,0-2.07-4.55c-2.73-2.43-7.67-.08-9-4.58-.47-1.59,0-4,0-5.66,0-2.93-.13-5,3.3-5.83,2.29-.53,4.09.11,6-1.77a7,7,0,0,0,1.77-4.95c.28-5.61-1.07-12,1.64-17.19,3.83-7.35,10.93-8.17,18.3-8.17,4.9,0,12.29-1.82,12.83,4.91.14,1.76.47,4.63,0,6.35-1.06,3.87-5.65,3.05-8.87,3.05A1.5,1.5,0,0,0,409.79,275.17Z" transform="translate(-371.78 -254.67)"/></svg>