<svg id="googleplus" xmlns="http://www.w3.org/2000/svg" viewBox="0 0 154.24 97.23"><defs><style>.cls-1{fill:#dc4e41;}</style></defs><title>googleplus</title><path class="cls-1" d="M385.42,275.15c3-6.61-3.9-1.45-11.57-4.85-3.91-1.73-7.88-4-13.16-4.64-4.44-.55-8.65.53-13.78,1.59-4.33.9-9.06.78-13.72,3.34-7.3,3.7-5.18,3.92-11.44,11-3.18,3.57-7.48,6.91-9.68,12.63-1.77,4.59-5.17,9.71-5.31,15.81s.48,12.38,2.08,17.12c2,5.87,9,8.46,12,12.26,6,7.46,4.05,7,11.17,11.3,5.83,3.48,3.94,5,11.68,6.89,3.84.95,8.56.79,13.61.64,4.15-.12,9.1.8,13.79-.71,4-1.28,8-3.92,12.18-6.57,5.48-3.34,4.72-3,9.26-9.18,2.16-3,2.89-7.41,4.54-12,1.29-3.62,4.69-7.31,5.13-12.05.36-3.88-1-8.93-1.49-13.61-7.16-2.17-7.68,2.08-15.17,2.08s-7.48-3.83-15-3.83-8.08-1.39-13.23,4.05c-5.43,5.75-6.5,7.83-1.34,13.83,4.45,5.16,6.42,1.28,13.23,1.28s7.5-3.91,13.67-1c5.71,2.68-1.95,5.47-6.37,10.82-2.41,2.92-5.08,6.69-9.38,8.44a27,27,0,0,1-12.75,2c-3.62-.35-6.62-4.38-11.12-6.24-6.57-3-9,.44-13.6-6.15-2.41-3.45-4.3-9.1-4.85-14.61a39.65,39.65,0,0,1,1.81-15.12c2.44-6.5,4.9-4.73,10.44-9.92,3.07-2.86,6.39-6.49,11.35-7.72,3.94-1,8.41.16,13.64,1.52,3.86,1,8.73,4.13,13.32,6.95C383.67,288.67,381.86,283,385.42,275.15Z" transform="translate(-306.75 -262.61)"/><path class="cls-1" d="M457.1,304.23c-4.83-4.83-8.08,4.06-13-.73s3-6.95-1.68-11.74-8.88-6.45-13.5-1.75,5.88,9.8,1.09,14.5-9.61-5.6-14.44-.77-4.4,9.85.43,14.69,10.09-6.13,15-1.38c4.75,4.58-5.3,9.2-.63,13.86s8.48,5.45,13.14.79-4.26-8.09.49-12.67c4.92-4.75,6,.76,12.17-2.21C462.91,313.58,461.94,309.06,457.1,304.23Z" transform="translate(-306.75 -262.61)"/><path d="M386,279c4.83-7.77-12.45-13.17-17.54-14.63A48.52,48.52,0,0,0,307.1,310c-.38,17.13,8.61,34.14,23.36,43.07,16.12,9.75,37.72,8.65,53.29-1.62a38.65,38.65,0,0,0,10.65-11,47.11,47.11,0,0,0,6.05-13.45c1.6-5.78,3.09-13.64,1.81-19.56s-9-4.3-13.64-4.3H362.49c-1.76,0-4.16-.35-5.81.44-3.24,1.55-2.58,5.55-2.58,8.48s-.84,7.28,2.1,9.14c2.24,1.42,5.95.77,8.44.77,3.75,0,9-1,12.57,0,4.77,1.28-.08,7-2.11,9.23-8.1,9.12-21.47,10.15-32.16,4.83-13.5-6.71-19.27-25.61-11.39-38.51,4.08-6.68,10.36-12.32,18.18-14,6.45-1.37,13.12.22,19,3,4,1.85,6.22,3.5,9.74.22,2.53-2.37,4.87-5,7.29-7.47,1.36-1.38-.76-3.51-2.12-2.12-2.22,2.27-4.35,5-6.83,7-.36.29-.69.94-1.1,1.13-1.79.81-4.5-.92-6.14-1.66a40.88,40.88,0,0,0-8-2.76,28.05,28.05,0,0,0-23,4.58c-10.75,7.89-16,21-12.38,34.14,4,14.53,18,23.5,32.84,22.66a26.77,26.77,0,0,0,20.07-11.15c1.66-2.23,4.3-5.56,3.73-8.49s-3.22-3.54-5.82-3.61c-3.79-.11-7.59,0-11.38,0-2.85,0-7.58,1.18-8.48-2.25-.57-2.18-.82-9.63,1.63-10.58,1.62-.63,4.88,0,6.56,0h24.59c1.79,0,5.8-.76,7.48,0,4.35,2,1.54,14.57.67,18.25C393.65,343,379,355,360,356.7c-13.05,1.14-26.18-3-35.58-12.12-16.78-16.25-19.4-43.74-4.3-62.07a46,46,0,0,1,51.64-13.84c2,.77,13.89,5.21,11.63,8.84C382.38,279.16,385,280.66,386,279Z" transform="translate(-306.75 -262.61)"/><path d="M453.87,303c-2.09,0-5.15.61-7.1,0-3.31-1-1.88-5.66-2.07-8.38-.41-5.94-6.47-5.37-11.06-5-6.8.48-4.27,6.18-5.13,10.77-1.12,6-10.56-.35-13.23,5.24-.91,1.9-.44,4.68-.44,6.7,0,2.24-.3,4.71,1.63,6.3s4.5,1.09,6.71,1.09c.82,0,2.88-.35,3.68,0,2.3,1,1.65,3.62,1.65,5.58,0,2.15-.34,4.6,1.32,6.29,1.81,1.84,5,1.32,7.26,1.32s4.6.34,6.29-1.32c1.84-1.81,1.32-5,1.32-7.27,0-4.8,2.16-4.6,6.28-4.6,2.61,0,5.61.22,6.95-2.58,1.07-2.26.56-6,.44-8.39-.15-2.94-.91-5-4.1-5.65-1.89-.38-2.7,2.51-.8,2.9,2.68.54,2.11,5.33,1.9,7.23-.4,3.53-2.14,3.49-5.34,3.49-3.89,0-7.76-.18-8.33,4.67-.23,2,.59,4.5,0,6.39-.86,2.72-4.49,2.47-6.95,2.13-5.9-.84-1.58-7.28-4-11.09s-7.36-1-10.84-2.1c-3-.93-2.07-4.27-2.07-6.73,0-3.22,1.34-3.94,4.39-3.94,4.07,0,8.47.59,9.28-4.5.29-1.79-.2-3.7,0-5.5.41-3.6,2.37-3.43,5.58-3.43,7.44,0,3,6.06,5,10.68,1.79,4.11,8.3,2.75,11.81,2.75A1.5,1.5,0,0,0,453.87,303Z" transform="translate(-306.75 -262.61)"/></svg>