<svg id="instagram-4" data-name="instagram" xmlns="http://www.w3.org/2000/svg" xmlns:xlink="http://www.w3.org/1999/xlink" viewBox="0 0 103.43 103.23"><defs><style>.cls-1{fill:url(#Instagram);}.cls-2{fill:url(#Instagram-2);}.cls-3{fill:url(#Instagram-3);}</style><linearGradient id="Instagram" x1="381.95" y1="269.76" x2="381.95" y2="320.42" gradientUnits="userSpaceOnUse"><stop offset="0" stop-color="#7123c2"/><stop offset="0.02" stop-color="#7622be"/><stop offset="0.13" stop-color="#8f1fa6"/><stop offset="0.2" stop-color="#981e9d"/><stop offset="0.42" stop-color="#bf1978"/><stop offset="0.66" stop-color="#c34256"/><stop offset="0.87" stop-color="#d26c46"/><stop offset="1" stop-color="#de973d"/></linearGradient><linearGradient id="Instagram-2" x1="409.69" y1="263.11" x2="409.69" y2="275.33" xlink:href="#Instagram"/><linearGradient id="Instagram-3" x1="383.54" y1="243.75" x2="383.54" y2="345.76" xlink:href="#Instagram"/></defs><title>instagram</title><path class="cls-1" d="M383,269.76c-7.09,0-13,3.11-17.68,7.76S356,288.11,356,295.21s3.67,14,8.32,18.69,11.6,6.52,18.69,6.52,13.68-2.24,18.33-6.89S408,302.3,408,295.21s-1.15-14.56-5.79-19.21S390.05,269.76,383,269.76Zm0,41.4c-8.68,0-16.4-7.27-16.4-16s7.72-14.4,16.4-14.4,15,5.71,15,14.4S391.64,311.16,383,311.16Z" transform="translate(-331.55 -243.75)"/><path class="cls-2" d="M415.62,269.52a5.63,5.63,0,0,1-5.86,5.81,5.74,5.74,0,0,1-6-5.81,6.25,6.25,0,0,1,6-6.41C413.15,263.11,415.62,266.13,415.62,269.52Z" transform="translate(-331.55 -243.75)"/><path class="cls-3" d="M403.89,247.81c-10.1,0-10.1-4.06-20.21-4.06s-10.1,1.88-20.2,1.88c-8,0-13.64,4.66-18.88,10s-8.62,11-8.62,19C336,285,334,285,334,295.21s-1.93,10.25-1.93,20.5c0,8.06,4.42,16.58,9.6,21.88S355.45,345,363.48,345c10.1,0,10.1-1.35,20.2-1.35s10.11,2.08,20.21,2.08c8,0,16.93-2.41,22.17-7.76A34,34,0,0,0,435,315.71c0-10.25-2.48-10.25-2.48-20.5s.17-10.26.17-20.51c0-8.06-1.8-16.6-7-21.9S411.91,247.81,403.89,247.81Zm21.54,67.78c0,10.76-11.05,17.88-21.66,17.88-10,0-10,1.87-20.09,1.87s-10,2.05-20.09,2.05c-10.61,0-20.62-11-20.62-21.8,0-10.19,1.94-10.19,1.94-20.38s1.93-10.2,1.93-20.39c0-10.76,6.14-17.75,16.75-17.75,10.05,0,10.05-1.76,20.09-1.76S393.73,254,403.77,254c10.61,0,18.5,10.1,18.5,20.86,0,10.19-2.41,10.41-1.59,20.57S425.43,305.4,425.43,315.59Z" transform="translate(-331.55 -243.75)"/><path d="M383,268a27.17,27.17,0,0,0-17.33,48.11c19,15.77,48.07-1.12,44.15-25.36C407.64,277.56,396.09,268.36,383,268c-1.93,0-1.93,3,0,3,13.2.34,24.16,10.74,24.19,24.19a24.19,24.19,0,0,1-48.38,0c0-13.45,11-23.85,24.19-24.19C384.89,271,384.9,268,383,268Z" transform="translate(-331.55 -243.75)"/><path d="M383,309.43c-7.79-.34-14.13-6.24-14.22-14.22a14.22,14.22,0,0,1,28.44,0c0,8-6.47,13.89-14.22,14.22-1.92.08-1.93,3.08,0,3,9.39-.4,17.18-7.56,17.22-17.22a17.22,17.22,0,0,0-34.44,0c0,9.67,7.86,16.82,17.22,17.22C384.89,312.51,384.89,309.51,383,309.43Z" transform="translate(-331.55 -243.75)"/><path d="M413.28,269.52c-.32,5.93-9.27,6-9.27,0s8.95-5.94,9.27,0c.11,1.92,3.11,1.93,3,0a7.64,7.64,0,1,0-8,7.61,7.76,7.76,0,0,0,8-7.61C416.39,267.59,413.39,267.59,413.28,269.52Z" transform="translate(-331.55 -243.75)"/><path d="M403.46,243.86H373.83c-11.46,0-22.48-.46-31.77,7.72-9.63,8.47-10.44,19.65-10.44,31.49,0,10.71-.16,21.44,0,32.15.22,14.77,10.17,28,25,30.78,9.69,1.81,20.49.55,30.27.55,10.4,0,21.9,1.39,31.37-3.79,12-6.56,16-18.52,16-31.38,0-12,.11-24,0-36.05a31.31,31.31,0,0,0-30.84-31.47c-1.93,0-1.93,3,0,3,16.35.38,27.78,13.33,27.84,29.29.05,9.84,0,19.68,0,29.51,0,11.34.11,22.19-9.08,30.62-8.78,8-19.64,7.27-30.58,7.27-9.52,0-19,.08-28.56,0a28.26,28.26,0,0,1-28.46-28c-.16-8.9,0-17.82,0-26.73,0-10.07-1.25-20.86,4.71-29.66a28.37,28.37,0,0,1,23.25-12.33c3.9-.07,7.81,0,11.7,0h29.18A1.5,1.5,0,0,0,403.46,243.86Z" transform="translate(-331.55 -243.75)"/><path d="M421.34,315.59c-.32,8.87-6.48,16.5-15.45,17.78a57,57,0,0,1-7.84.21h-28c-2.46,0-4.93.09-7.39,0-7.78-.28-14.71-4.8-17.2-12.36-2.24-6.76-.91-15.61-.91-22.58,0-7.76-.22-15.56,0-23.33.33-12.14,9.51-18.48,20.83-18.48h27.06c8.89,0,18.39-1.14,24.75,6.6,6,7.29,4.11,19,4.11,27.85v24.31a1.5,1.5,0,0,0,3,0V290.32c0-8,1.44-18-2.45-25.33-5.26-9.91-14.94-11.16-24.92-11.16H366c-10.74,0-20.89,4.48-23.74,15.85-2,7.94-.64,17.45-.64,25.53s-1.34,17.58.64,25.52c2.85,11.39,13,15.85,23.74,15.85h34c4.39,0,8.58-.16,12.63-2.15,7.3-3.59,11.47-10.84,11.76-18.84C424.4,313.66,421.4,313.66,421.34,315.59Z" transform="translate(-331.55 -243.75)"/></svg>