<svg id="linkedin" xmlns="http://www.w3.org/2000/svg" viewBox="0 0 93.51 96.3"><defs><style>.cls-1{fill:#007bb5;}</style></defs><title>linkedin</title><path class="cls-1" d="M360.92,258.76c0,6.25-4.46,13.43-10.65,13.43s-13.68-7.18-13.68-13.43,7.48-11.37,13.68-11.37S360.92,252.52,360.92,258.76Z" transform="translate(-336.59 -247.29)"/><path class="cls-1" d="M357.65,336.3c-6.14,5.69-10.6,4.36-16.74-1.33-5.69-5.28-2.57-7.1-2.57-14.86s1.1-7.76,1.1-15.53,2.69-7.76,2.69-15.52-6.48-9.13-.79-14.41c6.13-5.69,8.13-5.27,14.27.42,5.69,5.28,3.1,6.22,3.1,14s-.24,7.77-.24,15.53-2.27,7.74-.47,15.3C360,328.33,363.34,331,357.65,336.3Z" transform="translate(-336.59 -247.29)"/><path class="cls-1" d="M423.66,285.9c-2.63-7.79-8.82-12.82-16.59-12.82-3.07,0-3.08.07-6.14.18-6.29.44-9.24,4.93-9.24,10.62,0-5.18,4.14-8.14-.27-10.85-7.19-4.41-14.87-7.62-17.08.52-8.14,30-7.92,32,.23,62,2.21,8.14,12.53,7.53,16.07-.13,7.66-16.61.27-18.07.27-36.36a8,8,0,0,1,7.63-8l1.72,0a8.47,8.47,0,0,1,8.17,8.18c0,18.21-8.1,19.82-.5,36.37,3.48,7.59,12.91,7.55,16.26-.11,7.65-17.49.28-18.94.28-38C424.47,294.49,424.6,288.69,423.66,285.9Z" transform="translate(-336.59 -247.29)"/><path d="M358.74,258.76c-.59,10.85-16.95,10.95-16.95,0s16.36-10.85,16.95,0c.1,1.92,3.1,1.93,3,0-.34-6.22-5-11.47-11.47-11.47a11.46,11.46,0,0,0-.55,22.91c6.71.31,11.67-5,12-11.44C361.84,256.83,358.84,256.84,358.74,258.76Z" transform="translate(-336.59 -247.29)"/><path d="M357.24,340.3c-3.16,0-14.09,1.79-15.45-1.64-1-2.56,0-7.66,0-10.35V287.4c0-2.86-1-8,0-10.69.91-2.4,4-1.68,6-1.68,2.44,0,7-.94,9.33,0,2.94,1.19,1.59,7.77,1.59,10.13v42.77c0,2.26,1.6,11.71-1.9,12.42-1.89.38-1.09,3.27.8,2.89,5-1,4.1-5.95,4.1-9.82V287c0-3.48,1-8.67-.29-12.05-1.06-2.76-3.69-2.91-6.21-2.93-3.69,0-7.48-.23-11.17,0-5.11.32-5.28,3.91-5.28,8v45.5c0,4.35-.73,9.39.06,13.68.73,4,3.9,4.11,7.21,4.11h11.18A1.5,1.5,0,0,0,357.24,340.3Z" transform="translate(-336.59 -247.29)"/><path d="M428.37,287.42c-3.68-10.15-11.33-15.34-22-15.39-9.07,0-17.8,2.11-18.27,12.88h3c0-3.67,1.5-10.85-2.93-12.59-1.75-.69-4.17-.29-6-.29-2.89,0-5.92-.28-8.81,0-7.47.71-4.84,13.53-4.84,18.62v38c0,3.24-.33,6.69,0,9.92.52,5.11,5,4.69,8.9,4.69,3.53,0,11.25,1.53,13.22-2.58,1.41-2.94.44-7.9.44-11V309.8c0-4.51-1.15-11.2,3.17-14.13,5.13-3.47,12.75,0,13.2,6.1.09,1.23,0,2.49,0,3.72v18.73c0,4.64-.31,9.4,0,14,.32,4.92,4,5,8,5,4.43,0,13.19,1.92,14.35-4.11.73-3.79.06-8.29.06-12.13V305.27c0-6,.27-12-1.45-17.85-.54-1.85-3.44-1.06-2.89.79,2.82,9.64,1.34,21.26,1.34,31.17v16c0,.84.31,2.45,0,3.25-.93,2.33-3.9,1.63-5.85,1.63-3.8,0-9.93,1.62-10.52-3.1-.57-4.49,0-9.42,0-13.95V306.14c0-3.66.29-7.25-2-10.4-3.14-4.34-9.9-5.56-14.66-3.24-4.22,2-5.65,6.1-5.72,10.49-.16,10.35,0,20.72,0,31.07,0,1.21.33,3,0,4.19-.72,2.57-2.89,2.05-5,2.05-3,0-10.54,1.53-11.54-2.12-.74-2.71,0-6.71,0-9.49V312.12c0-11.1-.85-22.56,0-33.63.38-5,5.68-3.46,9.72-3.46,2.44,0,5.94-.91,6.84,2,.67,2.19,0,5.53,0,7.85a1.5,1.5,0,0,0,3,0c.41-9.38,8.7-9.94,16-9.88,9,.07,15.31,4.76,18.37,13.18C426.13,290,429,289.24,428.37,287.42Z" transform="translate(-336.59 -247.29)"/></svg>