<svg id="pinterest" xmlns="http://www.w3.org/2000/svg" viewBox="0 0 80.41 97.44"><defs><style>.cls-1{fill:#ca2027;}</style></defs><title>pinterest</title><path class="cls-1" d="M359.83,313.59c1.06,3-.51,3.47-1,6.63-.47,2.93-1.3,3.36-5.87,0s-9.13-8.65-9-23.21c.08-7.85,5.46-16.08,13.31-22.57,6.71-5.54,15-9.34,24.7-9.08,13-.57,13.13-1.33,24.16,6.58,5.83,4.18,12.58,10.09,14.59,20.93,1.67,9-.55,17.93-4.14,24.81-4.15,8-11.94,12.46-19,15.16-8.13,3.11-15.44,3.82-21.15-3.69-6.63,7-1.22,9.24-4.41,18.37a26.36,26.36,0,0,1-6.76,10.39c-1.25,1.1-5.44,2.14-6.19-.48-1.74-6.09-2.09-6.74-1-13,3.11-17.61,10.3-16.67,10.48-34.55.15-14.66-8.34-19,8.44-22.36,9.88-1.44,10.64-1.91,5.79,14.45s-4.31,7.59-3,15.67c1.08,6.71-.58,8.72,8.3,8.3,5.71-.27,11.38-3.85,14.74-12.71,1.86-4.91,4.25-11.5,4.1-20.3-.36-16.85-1.55-17.37-25-17.78-11-.2-19.18,4.47-23.61,12C353.27,295.8,353.78,306.51,359.83,313.59Z" transform="translate(-341.19 -262.41)"/><path d="M356.94,313.45c-.34,1.49-.42,5.13-1.39,6.24s-4.59-2.33-5.74-3.57c-5.63-6.11-6.85-16.92-4.71-24.67,4.46-16.13,21-25.63,36.92-25.88,9-.14,18.14,1.92,25.16,7.77,12.73,10.61,14.65,30.74,6.65,44.69-7.32,12.77-26.32,23.9-37.81,9.51a1.51,1.51,0,0,0-2.5.66l-4.33,16.68a15.69,15.69,0,0,1-2.06,4.88c-2.08,3.7-3.28,7.85-8.27,6.8L360,358c.1-6.73,0-11.68,1.39-17.75l6.45-27.41c1.24-5.29-1.81-10.16-.9-15.71,1.74-10.78,16.92-13.68,14.87.16-1,6.46-4.61,12.78-4.92,19.34-.05,1.07,0,3.44,1.87,2.74l-1.9-1.45c.5,9.43,10.93,11.38,18,7.55,10.78-5.8,13-21.85,12.22-32.76-1.56-22.63-33.1-26.12-46.69-12-8.73,9.07-11.33,24-3.08,34.2,1.22,1.5,3.33-.63,2.12-2.12-6.21-7.68-5-18.8.36-26.61,6.72-9.87,19.32-13.16,30.52-9.74,6.94,2.12,12.45,7.56,13.6,14.86,1.31,8.26-.29,19.48-5.09,26.51-3.88,5.69-18.4,11.47-19,.11a1.5,1.5,0,0,0-1.89-1.44c-5.72,2.14,2.74.78,1.81,1.22.05,0,0-.32,0-.36a6.71,6.71,0,0,0,.29-1.57c.63-3.09,1.53-6.13,2.4-9.16,1.56-5.45,4.46-12.79,1.1-18.21-4-6.44-12.79-3.66-16.72,1.32-2.82,3.59-3.42,8.33-3,12.76a33.13,33.13,0,0,0,.95,5.41c.18.69.65,3.26.7,1.76-.1,3.07-1.55,6.61-2.25,9.59L359.4,335.5c-.74,3.16-1.87,6.45-2.24,9.68-.47,4.19-.13,8.61-.19,12.82a1.51,1.51,0,0,0,1.1,1.45c3.44.73,6.06.72,8.13-2.23a45.9,45.9,0,0,0,5.3-9.28c2.28-6,3.3-12.73,4.91-18.94l-2.51.66c10.89,13.63,29.34,6.87,38.82-4.76,11.61-14.23,12.16-36.6-.26-50.6-20.09-22.66-67.21-11.25-71,20.07-1.13,9.34,1.1,20.16,8.8,26.2,2.06,1.63,5.54,4.08,7.67,1.29,1.32-1.73,1.38-5.3,1.89-7.61C360.25,312.37,357.36,311.56,356.94,313.45Z" transform="translate(-341.19 -262.41)"/></svg>