<svg id="snapchat" xmlns="http://www.w3.org/2000/svg" viewBox="0 0 103.82 100.64"><defs><style>.cls-1{fill:#fffc00;}</style></defs><title>snapchat</title><path class="cls-1" d="M355.38,285.51c.34-11.63-2-17.07,1.07-23.45s10.4-16.47,25.77-16.64c9.33-.38,9.51-.3,17.7,5.24,4.32,2.92,6.05,8.1,8,15.62,2.47,9.66,4.75,7,2.85,19.26,0,3.36.85-.42,5.34-2.9,4.13-1.19,6.71,1.11,7.23,5.71s-2.76,4.27-7.89,5.42c-4,.9-6.85,2.88-4.77,6.78s6.47,15.65,18.9,19.37c4.9,1.19,8.34-.88.39,4.26-4.51,2.37-5.52,4.67-8.11,4.14-1.51,1.47-.89.52-1.19,2.61-.47,3.32-1.51,3.75-6.18,2-10.25-3.37-12-3.84-20.76,5.38-8.6,8.18-9.65,10.68-23.12,3.07-8.34-6.23-7.94-13.63-18.3-10.8-3.78,1.31-1.35,4.63-2-1-.29-1.62-2-2.36-3.55-2.9-6.08-2.07-5.57-.86-10.58-5.29s-2.67-2.15,1.64-3.08c11.64-2.52,8.35-5.21,14.4-17.79,2.54-4.47,7.23-6.14-.37-8.45s-8.38,1.9-8.38-2.93c0-4.52-.24-4.27,6.15-3.39C352.34,286.63,352.79,286.93,355.38,285.51Z" transform="translate(-331.38 -245.28)"/><path d="M357.83,285.76c-1-8-1.91-17.37,2.38-24.54,5.06-8.44,13.23-12.64,23-12.68,6.83,0,13.91,2,18.95,6.78,8.27,7.84,8.1,19.6,6.57,30a1.56,1.56,0,0,0,.69,1.69c2.1,1.1,4.27.12,6.34-.46,1.39-.39,2.56-1,4.09,0,4.6,2.95-1,5.24-3.12,5.89-4,1.23-8.39,3.23-6.47,8.24a31.63,31.63,0,0,0,13.48,15.7c1.61.88,7.5,2.11,7.72,3.68.41,2.9-9.52,4.42-11.27,4.27a1.49,1.49,0,0,0-1.44,1.1c-.76,2.89-.37,5.53-4.06,5.5-2.32,0-4.54-.74-6.94-.56a21.94,21.94,0,0,0-11.48,4.27c-2.5,1.87-3.6,3.34-6.84,4.4a20.1,20.1,0,0,1-16.32-2.15c-2.5-1.62-4.53-3.58-7.33-4.82a19.79,19.79,0,0,0-11.52-1.62c-.83.16-3,1.12-3.93.73-1.29-.56-1.89-4.27-2.25-5.58a1.52,1.52,0,0,0-1.45-1.1c-2.1.12-13.93-2.62-11.11-5.29.59-.57,3-.74,3.89-1.08,7.27-2.74,12.93-9,16.46-15.72,3.07-5.83-.68-8.13-6-10.15-2.14-.82-6.19-2.08-4.55-4.49,2.28-3.32,8,.54,11.35-.56,1.83-.6,1-3.5-.79-2.89-4.15,1.37-7.94-3-12,.57-1.27,1.12-2.35,3.18-1.95,4.91.55,2.46,3.78,4,5.77,4.81,3.38,1.45,7.15,1.84,5.77,6-.85,2.56-3.22,5.43-4.94,7.35a27,27,0,0,1-10.69,7.58c-1,.36-3.75.5-5.15,1.83-6.12,5.82,10.2,10.35,13.92,10.14l-1.44-1.1c.77,2.78,1.06,6.74,4.35,7.67a7.3,7.3,0,0,0,3.68-.25,16.79,16.79,0,0,1,9.11.14c4.22,1.29,7,4.41,10.76,6.28a23.76,23.76,0,0,0,15.25,2.18,19,19,0,0,0,7.27-3.23c5.28-3.82,9.94-6.73,16.77-5.68,2.54.39,5.16,1.65,7.17-.71,1.38-1.62,1.57-4.59,2.09-6.57l-1.45,1.1c3.42.3,18.32-3.15,14.3-9.3-1.41-2.16-6-2.63-8-3.59A27,27,0,0,1,414.9,303c-1.12-2-3-4.47-.65-6.5a6.54,6.54,0,0,1,2.66-1c2.77-.87,6.29-1.78,7.44-4.83s-.74-5.87-3.48-7a9.31,9.31,0,0,0-4.15-.63c-1.78.19-3.94,2.37-5.75,1.42l.69,1.7c1.19-8.21,1.81-17.11-1.69-24.86a26.46,26.46,0,0,0-17.84-14.67c-13.75-3.55-28.13,1.46-35.14,14.18-4.05,7.36-3.16,16.89-2.16,24.95C355.07,287.65,358.07,287.67,357.83,285.76Z" transform="translate(-331.38 -245.28)"/></svg>