<svg id="tumblr" xmlns="http://www.w3.org/2000/svg" viewBox="0 0 60.97 99.5"><defs><style>.cls-1{fill:#44546a;}</style></defs><title>tumblr</title><path class="cls-1" d="M405.71,286.28c-6.34-6-12.26,7.05-17.84.32-6.73-8.12,5.93-12.42.09-21.2-3.89-5.84-8.15-4.16-14.08-.41-3.75,2.38-.14,4.74-.18,9.18-.12,11.83.31,15.66-13.36,16.4-4.54,4.47-4.36,7.75-.32,12.67,3.33,4,9.08-5.13,10.36-.05,5.08,20-.5,20.56-.17,41.17.19,12.1,1.31,12.44,17.57,14.06,11.12,1.53,10.94,2.42,21.41-5.28,3.13-6.71,2.35-8-.43-14.86-2.46-6.11-3.91,4.38-11.66,4.67s-9.06.2-9.21-5.62c-.47-17.16-7.1-18.88.65-34.2,3.92-7.75,9.2,3.52,17.06-.16C413.7,299.18,411.73,292,405.71,286.28Z" transform="translate(-353.51 -261.58)"/><path d="M405.86,286.88h-6.33c-2.1,0-6.31.83-8.24,0-2.56-1.12-1.59-5.27-1.59-7.44,0-2.79.26-5.71,0-8.49-.53-5.56-5.55-4.81-9.8-4.81-5.14,0-9.57-.39-9.79,6-.16,4.55,0,8.41-2.7,12.43-2.86,4.25-6.34,4.33-10.59,6.23-2.24,1-3,2.42-3.16,4.83-.29,4.6-.76,10.35,5.17,10.71,2.35.14,6.17-1.06,7.2,1.8.5,1.36,0,4,0,5.38,0,10.42-1,21.34,0,31.71.93,9.65,11.31,14.36,19.73,15.46a43.22,43.22,0,0,0,20.81-2.15c3.18-1.18,7-2.3,7.67-6a31,31,0,0,0,.05-7.27c-.63-8.83-10.54-2.55-15.47-2.5-3.34,0-7.76-.81-9-4.49,0,.08,0-2.5,0-3.42V314.24c0-1.74-.63-4.78,0-6.4,1-2.64,5.56-1.67,7.78-1.67,4.47,0,12.05,1.64,12.74-4.61.49-4.42,1.63-13.47-4.1-14.63-1.88-.38-2.69,2.51-.8,2.89,2.93.59,1.9,5.68,1.9,7.67,0,2.82.57,5.09-2.76,5.68-4.35.78-9.08-.67-13.46,0-4.19.67-4.3,4-4.3,7.43v16.79c0,6.86-1.85,14.77,6.33,17.59,3.43,1.18,7.38.88,10.86.1,1.66-.37,5.92-2.67,7.26-.25.38.68,0,2.75,0,3.56a14.52,14.52,0,0,1,0,3.36c-.8,2.85-6.24,4.2-8.75,4.9A39.3,39.3,0,0,1,390,358.09c-7.86-.42-20-3.86-20.93-13-.92-9.55,0-19.62,0-29.21,0-2.8.77-6.86-.29-9.59-2.13-5.53-10.5-.17-12.08-4.81-.56-1.67-.32-5.83.74-7.1,1.68-2,6.7-2.5,9.1-4.41A18.38,18.38,0,0,0,373,277.85a29.4,29.4,0,0,0,.15-3.87c0-1.89-.53-4,1.79-4.84,1-.36,3,0,4,0,2.33,0,6.79-1,7.78,1.81.78,2.24,0,6.13,0,8.49,0,4.15-1,9.76,4.54,10.44,4.73.57,9.85,0,14.62,0A1.5,1.5,0,0,0,405.86,286.88Z" transform="translate(-353.51 -261.58)"/></svg>