<svg id="twitter" xmlns="http://www.w3.org/2000/svg" viewBox="0 0 118.06 102.53"><defs><style>.cls-1{fill:#5ea9dd;}</style></defs><title>twitter</title><path class="cls-1" d="M439.6,244.53c-4.63-6.6-4.72,3.4-14.82,5.35C412,243.38,414.57,239.05,398,245c-16.09,6.18-16.9,7.76-12.88,29-5.25,13.22-13.51-.57-28.09-8.42-7.1-3.83-14.95-8.85-21.75-17.59-9.22-.48-5.36,8-3.32,17.73,1,4.93,5.72,9.82,11.76,14.71,1.34,5.28-7.29.06-12.93-3.17-6.88,15.12-.74,20.62,19.28,26.19,4.82,2.14-3.88.28-10.81-1-3.09,14.55,4.6,16.68,22.76,17.46,8.17,4.59-6.58,4.83-16.48,7.92-5.34,1.66-12,3.46-18.81,2.22,4.85,11.82,9.52,7.19,23.77,10.23a63.94,63.94,0,0,0,25.68.66c7.44-1.45,15.07-5.56,23.23-10.71,10.38-6.41,9.43-5.15,17.73-16.57a70.43,70.43,0,0,0,11-21.8c2-7.05,3.69-14.71,3.22-23.77,3.81-8,5.35-4.35,10.71-13.15-2.73-6.34-7,3.79-12.66,4C434,251.12,438,253,439.6,244.53Z" transform="translate(-325.73 -239.93)"/><path d="M435.93,244.47c-2.43,1.12-6.43,3.19-9.16,3-1-.06.32.75-1,0-2-1.06-3.64-3.08-5.7-4.22A26.4,26.4,0,0,0,386,250a25.23,25.23,0,0,0-4.59,8.67c-.55,1.86-.54,3.78-1,5.62-.84,3.49-1.91,6.07-5.87,5.75a25.86,25.86,0,0,1-3.25-.62,69.31,69.31,0,0,1-26.93-12.3,102.69,102.69,0,0,1-8.19-7.25c-1.15-1.07-2-1.95-3.66-2.19-3.18-.48-5.18,1.85-6,4.64a25.67,25.67,0,0,0-.53,10.68,24.08,24.08,0,0,0,1.92,6.43c.59,1.29,4.88,6.45,3.2,7.34-.47.26-2.52-.82-3.5-.39a3.17,3.17,0,0,0-1.82,2.6c-.48,2.59,1,6.36,2,8.65a24.61,24.61,0,0,0,6.49,9c.76.66,5.27,3.23,4.81,4.22-.09.2-2.6.85-3.08,1.6-3.14,5,6.9,13,10.33,14.9,1.62.91,5.7,1.66,6.27,3.36s0,1.3-1.45,2.1c-1.12.6-2.25,1.17-3.41,1.69a48.82,48.82,0,0,1-8,2.83c-3.25.84-6.84.58-10,1.45-2.14.59-3.73,2.64-2.53,4.89s5.34,3.2,7.47,4c27.48,10.5,59.47,3.48,79.38-18.22a74.26,74.26,0,0,0,13.21-20,69.55,69.55,0,0,0,4.52-13.86c1-4.73,2.62-11.63,1.57-16.41-.51-2.3-.89-1.61,1.13-3.06a40.94,40.94,0,0,0,5.07-4.31c1.55-1.54,6.53-6,2.8-8.15-1.62-.94-3.26.33-4.81.62-2.57.48-1,.67-.37-.85.05-.11,2.21-2.81,2.26-2.89,1.92-2.9,1.51-6.84-2.83-6.29-1.89.23-1.91,3.24,0,3s-3.3,5.64-3.6,6.13a3.85,3.85,0,0,0-.84,2c.05,1.73,1.47,2.48,3,2.59.42,0,4.49-1.33,4.52-1.26.5.9-2.67,3.4-3.31,4a30.2,30.2,0,0,1-5.36,4.12,1.48,1.48,0,0,0-.74,1.29c1.09,24.15-10,47.8-30.09,61.54a69.9,69.9,0,0,1-39.75,11.93A72.19,72.19,0,0,1,338.93,336c-.94-.31-7.86-2.23-8-3.15-.17-1.17,11.23-3,12.67-3.5,3.47-1.14,13.54-3.87,13.67-8.53.05-1.89-1.19-2.92-2.74-3.6-4.6-2-8.58-2.92-12.13-6.82-1.85-2.05-4.64-4.9-2.24-6.65,1.38-1,2.95-1.45,2.58-3.72-.44-2.75-4.5-4-6.3-5.51a21.85,21.85,0,0,1-6.4-9.43c-.33-.93-1.21-2.88-1-3.92.41-2.24,1.19-.81,2.92-1s3.45-.52,3.83-2.7c.54-3.1-3.24-5.65-4.54-8.13a22.62,22.62,0,0,1-2.19-14.12,8.81,8.81,0,0,1,.43-2.06c2.91-5,3.66-1.58,5.25-.46,1.86,1.31,3.44,3.29,5.21,4.75a73.56,73.56,0,0,0,10.84,7.44,72,72,0,0,0,19.76,7.47c6.15,1.33,11.82.67,12.85-6.58,1.17-8.17,3.85-14.62,11-19.27,8.88-5.74,22.7-4.45,29.86,3.91a1.51,1.51,0,0,0,1.46.39,53.29,53.29,0,0,0,11.7-3.71C439.2,246.26,437.68,243.67,435.93,244.47Z" transform="translate(-325.73 -239.93)"/></svg>