<svg id="whatsapp" xmlns="http://www.w3.org/2000/svg" viewBox="0 0 102.13 102.07"><defs><style>.cls-1{fill:#48c857;}.cls-2{fill:#fff;}</style></defs><title>whatsapp</title><path class="cls-1" d="M385.17,256.58c-7.49,0-14.61,1-20.66,4.53-6.24,3.61-9.83,9.86-13.44,16.1-3.5,6.05-7.93,12.19-7.93,19.68,0,8.61,4,16.59,8.53,23.2.15,8.13-10.53,10.23-4.7,15.89s7.76-5.86,16-6c6.4,4.12,14,8.37,22.22,8.37,7.49,0,13.94-3.38,20-6.88,6.24-3.61,10.08-8.94,13.69-15.18a39.75,39.75,0,0,0,0-38.87c-3.61-6.24-6.8-12.67-13-16.28C399.73,257.69,392.66,256.58,385.17,256.58Z" transform="translate(-332.63 -245.45)"/><path class="cls-2" d="M367,273.55c1.45-.27,1.37-1.23,2.85-1.27s1.32.88,2,2.52,3.64,4.54,6,9.66c.68,1.46.25,1.87-1.26,3.9s-2,1.14-3.66,2.55c-.85.73-.44.82.21,2.26s7,12,17.29,15.45c1.05.37,1.84.6,2.63-.52a50.46,50.46,0,0,1,3.51-5.67c1-1.25.27,0,2.5,1.07s5.26,1.47,10.17,3.59c1.25.54,1.35.29,1,2.26-.27,3.35.5,5.24-1.47,6.94s-4.25,2.75-11,2.82c-8.88-.45-8.46-.6-16.39-5.58s-6.73-5.49-12.52-12.3c-6.71-7.9-9.66-8.36-9.14-17.87C360.41,277,361.33,275.19,367,273.55Z" transform="translate(-332.63 -245.45)"/><path d="M365.47,275.15c2,0,3.22-.3,4.45,1.47,1.34,1.92,2.05,4.75,3,6.9,1.37,3.18,1,3.18-1.31,6.32-.84,1.13-1.75,1.71-1.73,3.23,0,3.36,4.53,7.38,6.65,9.44,2.84,2.76,9.56,9,13.94,7.88,1.84-.48,3-2.72,4.12-4.07.42-.51,1.12-1.87,1.73-2.08,1-.35,3.32,1.15,4.3,1.62,1.53.74,5.07,1.68,6.18,3s.39,3.56-.55,5.22c-7.66,13.47-29.74-2.6-35.83-9.31A54.11,54.11,0,0,1,363,295c-3.14-5.66-5.39-16.75,2.83-19.87,1.79-.67,1-3.58-.79-2.89-13.6,5.15-6.79,22.5-.44,30.34,7.31,9,18.65,18.79,31.66,19.36,5.85.26,12.3-3.11,13.65-9.12,1.26-5.59-1.35-6.39-5.84-8.54-2-1-5-3.13-7.3-3.18s-3.39,1.94-4.72,3.58c-.61.75-1.49,2.51-2.54,2.77-1.66.42-5.77-2.8-7.21-3.86a31.82,31.82,0,0,1-8.59-8.91c-1.79-3.08,2.12-4,3.05-7.09.57-1.92-.38-3.38-1.12-5.11-1.14-2.66-2.12-7.1-4.28-9.12-1.62-1.53-3.87-1.17-5.92-1.17A1.5,1.5,0,0,0,365.47,275.15Z" transform="translate(-332.63 -245.45)"/><path d="M379.19,245.59c-26,2.73-47.61,26.61-46.52,53,.28,6.77,1.66,14.68,5.24,20.56,1.29,2.13,1.27,1.35.87,3.48s-1.14,4.16-1.7,6.21c-1.07,3.89-7.14,16.7-.07,18.27,2.42.54,5.8-1,8.05-1.61l12.84-3.37c2.16-.57,1.7-.43,3.52.33A65.33,65.33,0,0,0,372,346.2a51.69,51.69,0,0,0,20.47.56c25.13-4.36,43.7-27.84,42.18-53.29-1.71-28.65-27.15-50-55.49-47.88-1.91.14-1.93,3.14,0,3,23.84-1.77,46,13.66,51.4,37.24,5.51,24.24-9.18,49.34-32.91,56.61a48.08,48.08,0,0,1-28.11,0c-3-.93-6.55-3.69-9.61-3.93-1.77-.15-4.23,1.06-5.91,1.5L343,342.9c-2.25.59-5.83,2.56-6.35-1.1-.35-2.49,1.92-7,2.57-9.4.82-3,1.68-6,2.47-9,1-3.8-1.57-6.23-2.95-9.88-10.87-28.79,9.94-61.71,40.47-64.92C381.09,248.39,381.11,245.39,379.19,245.59Z" transform="translate(-332.63 -245.45)"/><path d="M384.07,336.08a41.34,41.34,0,0,1-16.55-3.43c-2.62-1.19-4.64-3.37-7.52-2.94-3.48.52-12.74,5.45-10.84-1.63.63-2.35,1.82-5,2-7.46.22-3.08-3.17-6.67-4.32-9.58a39.62,39.62,0,1,1,76.47-14.21c-.21,21.44-18.07,38.7-39.24,39.25-1.93.05-1.94,3.05,0,3,19.65-.51,37.13-14.32,41.29-33.75a42.6,42.6,0,1,0-80,9.77c.87,1.8,2.72,3.71,2.76,5.23s-1,3.71-1.38,5.16c-.68,2.52-2.15,5.7-.34,8.07,2,2.66,5.09,1.54,7.74.83,1.87-.5,4.12-1.54,6-1.62.37,0,1-.45,1.37-.37s2.23,1.76,3,2.16a44.29,44.29,0,0,0,19.48,4.52A1.5,1.5,0,0,0,384.07,336.08Z" transform="translate(-332.63 -245.45)"/></svg>