<svg id="youtube" xmlns="http://www.w3.org/2000/svg" viewBox="0 0 144.81 102.73"><defs><style>.cls-1{fill:#f61c0d;}</style></defs><title>youtube</title><path class="cls-1" d="M423.78,247.64c-13.32,0-13.32-1.29-26.64-1.29s-13.32.6-26.64.6-13.33-.76-26.65-.76a28.87,28.87,0,0,0-28.9,29c0,10.09,2,10.09,2,20.18s-1.81,10.08-1.81,20.17c0,7.57,4.05,14.46,9,19.42s11.85,8.62,19.42,8.62c13.49,0,13.49-1.44,27-1.44s13.5.24,27,.24,13.5.32,27,.32c7.54,0,14.61-2.55,19.55-7.49a27.81,27.81,0,0,0,8-19.55V295.57c0-10,.15-10,.15-20.08a28.41,28.41,0,0,0-8.54-19.89A27.94,27.94,0,0,0,423.78,247.64ZM404.93,297c-9.41,4.46-10,3.3-19.36,7.76s-9.15,5-18.56,9.47c-.8.38-.22.26-.22-.62,0-9.19,0-9.19,0-18.38s-.09-9.19-.09-18.39c0-.89.1-2.19.9-1.8,9.41,4.59,8.62,6.22,18,10.81s9.83,3.73,19.24,8.32A1.6,1.6,0,0,1,404.93,297Z" transform="translate(-311.6 -243.85)"/><path d="M425.53,243.86H348c-4.4,0-8.82-.18-13.13.87a30.71,30.71,0,0,0-21.81,20.41c-1.85,5.84-1.41,12.06-1.41,18.1v24.25c0,6-.44,12.2,1.39,18a30.42,30.42,0,0,0,21.58,20.21c4.29,1,8.68.85,13.05.85h68.45c3.38,0,6.77.07,10.16,0A30.5,30.5,0,0,0,451.4,333c4-6.16,4.9-13,4.9-20.11V289.19c0-5.51.3-11.12-.08-16.62a31.05,31.05,0,0,0-15.91-24.93,32,32,0,0,0-14.78-3.78c-1.93,0-1.93,3,0,3,12.55.29,23.71,8.48,26.88,20.81,1.36,5.3.89,11.1.89,16.52v23.22c0,5.5.5,11.41-1.09,16.74a27.38,27.38,0,0,1-25.93,19.4c-2.84.06-5.68,0-8.52,0H374.62c-10.76,0-21.54.17-32.3,0-9.54-.15-18.36-4.49-23.52-12.69-3.85-6.13-4.15-12.67-4.15-19.6,0-12.27-.24-24.57,0-36.84.22-11.62,7.26-22.19,18.44-26.05,4.49-1.55,9-1.51,13.62-1.51h78.82A1.5,1.5,0,0,0,425.53,243.86Z" transform="translate(-311.6 -243.85)"/><path d="M405,295.6l-23.19,11-13.17,6.26c-.45.21-2.33,1.48-2.8,1.33.64.21.35-1.15.35-2V280.94c0-1.2-.43-3.28,0-4.4.24-.65-.91-.34.46.09,3.86,1.2,7.69,3.75,11.31,5.51l17.67,8.62c1,.49,9.69,4.53,9.08,5.07-1.44,1.29.69,3.41,2.12,2.12,3.55-3.17-.6-5.34-3.2-6.61l-16.73-8.17-16.48-8c-2.38-1.16-6-3.44-7.18.49-1,3.4-.05,8.35-.05,11.85v20.17c0,2.22-1.11,8.11,1.7,9.28,2.42,1,6.83-2.21,8.83-3.16l32.8-15.57C408.27,297.36,406.75,294.77,405,295.6Z" transform="translate(-311.6 -243.85)"/></svg>